<?xml version="1.0" encoding="UTF-8"?>
<svg id="Layer_1" data-name="Layer 1" xmlns="http://www.w3.org/2000/svg" viewBox="0 0 752.56 150.27">
  <defs>
    <style>
      .cls-1 {
        fill: #fe4d01;
      }
    </style>
  </defs>
  <g id="cnx3dQ">
    <g>
      <path class="cls-1" d="M204.59.03l-1.66,10.36-1.23,8.04,19.5.07-2.82,17.21-19.51.08-.71,4.27-3.25,19.65h.1l16.94.17-3.21,19.5-42.19.1,7.07-43.68-15.33-.04c2.76,14.14-2.2,27.04-13.06,35.88-8.12,6.6-17.94,9.69-28.58,9.8-13.75.14-27.55-5.38-30.38-18.64-4.82-22.5,11.02-43.61,33.82-46.22,14.78-1.69,28.48,1.11,36.37,13.95l2.11-11.96,17.92-.14,2.25-14.1h.05l.69-4.31-163.95-.02L0,92.48l216.17.02L231.85.03h-27.26ZM44.44,39.94l9.88,1.53c12.72,1.96,28.52,4.46,26.77,18.63-2.65,21.37-42.67,26.64-60.82,16.12-6.72-3.89-11.01-10.42-10.18-18.32l23.88.09c.47,2.97,1.98,5.34,4.72,6.15,7.75,2.3,17.75-.11,17.71-4.38-.01-.98-1.63-2.85-2.61-2.99l-10.76-1.54c-5.95-.86-11.77-2.07-17-4.71-7.07-3.57-9.81-10.9-6.64-18.36,6.58-15.45,33.1-19.21,50.4-13.47,9,2.98,14.68,10.76,14.39,20.01l-23.6.02c-.78-2.41-2.15-4.19-4.45-5.03-5.88-2.11-13.63-.44-13.98,3.26-.08.91,1.36,2.84,2.29,2.99Z"/>
      <path class="cls-1" d="M589.49,41.82l-6.39,37.75-24.7.03,5.59-34.43c.18-3.21-.21-7.18-3.17-8.81-4.01-2.21-9.01-.55-12.09,2.72-3.2,3.4-4.92,7.89-5.85,12.82l-4.39,27.68h-24.78s5.61-35.1,5.61-35.1c.51-3.2-.79-7.29-3.56-8.48-7.6-3.3-15.36,5.01-17.46,14.44l-4.8,29.14-25.01.06,10.01-60.39,24.35-.02-.93,9.18c7.95-9.05,18.88-13.18,30.01-10.46,6.71,1.64,11.06,6.28,12.2,13.51,6.76-10.37,17.93-15.45,29.64-14,12.43,1.54,17.73,12.02,15.72,24.36Z"/>
      <path class="cls-1" d="M306.12,19.19l-10.98,61.9c-7.77,28.5-37.46,28.85-63.09,22.97l3.58-19.22c12.68,5.12,32.64,6.05,34.81-6.77l1.64-9.69c-7.61,10.23-19.23,14.96-31.1,11.9-3.9-1-7.78-3.18-9.89-6.59-3.24-5.25-4.34-11.52-3.27-17.65l6.37-36.89,25.46.11-5.84,33.64c.17,2.57.46,5.31,2.04,7.01,1.25,1.35,4.31,2.1,6.56,1.97,6.67-.36,11.05-5.5,12.9-11.73l5.46-30.91,25.36-.04Z"/>
      <path class="cls-1" d="M467.03,35.74c-1.79-9.51-8.37-16.31-17.89-18.12-10.79-2.06-21.23,2.21-28.54,10.75l1.06-9.18-24.47.1-7.61,45.71-6.68,38.83,25.06-.03,5.57-33.19c8.43,14.87,29.42,13.69,41.33,2.58,10.3-9.61,14.75-23.72,12.17-37.45ZM432.15,64.25c-3.93,1.33-8.04.77-11.14-1.42-2.85-2-4.47-5.8-4.59-9.9-.24-8.89,4.92-17.21,13.64-19.23,3.59-.83,7.4-.04,9.88,2.13,6.83,6.01,4.59,24.22-7.79,28.42Z"/>
      <path class="cls-1" d="M580.17,91.83l-9.75,58.44h163.48l9.58-58.46-163.3.02ZM602.55,143.78l-17.51.11,2.27-15.75,17.49-.05-2.24,15.69ZM645.48,143.43v-6.69c-5.92,5.88-11.47,8.32-19.36,8.27-8.28-.05-15.63-6.48-14.21-15.52l4.88-31.12h18.28s-4.44,26.16-4.44,26.16c-.26,1.47.62,4.56,1.5,5.67,1,1.26,4.28,2.23,6.24,1.86,5.02-.91,9.06-5.3,9.92-10.38l3.98-23.32,18.24.07-7.42,45.51-17.61-.53ZM718.73,130.03l-2.24,13.61-50.63-.14,27.51-31.13-20.62-.48,1.81-13.57,50.28.17-28.26,31.38,22.15.16Z"/>
      <path class="cls-1" d="M362.88,19.23l-1.45,8.67c-8.73-13.48-25.88-13.52-38.52-4.77-13.33,9.21-19.96,26.18-15.82,41.79,2.61,9.84,10.26,15.84,20.26,16.56,10.46.76,20.16-4.13,27.25-12.03l-1.25,10.18,24.38-.07,9.95-60.31-24.8-.02ZM343.29,64.88c-4,.82-7.69-.08-10.27-2.27-2.38-2-3.61-5.32-3.77-8.91-.39-9.23,5.04-17.89,13.94-20.02,6.51-1.54,12.66,1.55,14.45,8.12,2.71,9.98-3.73,20.89-14.35,23.08Z"/>
      <path class="cls-1" d="M650.82,19.23l-1.62,8.87c-6.45-10.76-19.96-13.44-31.27-8.77-18.43,7.6-28.6,28.59-22.42,47.47,3.13,9.58,11.56,14.5,21.23,14.71,9.99.21,18.44-4.37,25.81-11.86l-1.45,10,24.43-.11,10.09-60.26-24.8-.05ZM631.27,64.89c-3.93.82-7.47.04-10.21-2.22-2.42-1.97-3.84-5.37-3.96-9.12-.27-8.51,4.45-16.89,12.63-19.38,3.54-1.07,7.2-1.15,10.45.55,2.66,1.38,4.97,4.63,5.63,8.34,1.72,9.84-4.36,19.67-14.54,21.83Z"/>
      <path class="cls-1" d="M752.14,43.05l-6.36,36.54-24.8.06,5.68-33.87c0-2.66,0-6.04-1.56-7.97-2.68-3.28-7.48-2.99-11.1-.93-5.01,2.85-7.13,7.72-8.74,12.9l-5.04,29.83-24.89-.02,9.97-60.36,24.55.04-1.34,11.05c6.97-7.86,15.72-13.44,26.2-13.02,5.57.23,10.95,2.3,14.07,6.73,3.92,5.61,4.28,12.29,3.35,19.03Z"/>
      <path class="cls-1" d="M124.58,63.16c-6.51,2.81-13,.11-14.8-6.22-2.32-8.15,1.07-17.41,8.37-21.58,5.34-3.04,12.98-2.61,15.81,3.22,4.33,8.91-.26,20.64-9.38,24.58Z"/>
    </g>
  </g>
</svg>